<svg xmlns="http://www.w3.org/2000/svg" viewBox="0 0 1200 750" role="img" aria-label="Retail &amp; Distribution CRM – SartthiCRM">
  <defs>
    <linearGradient id="navbg" x1="0" y1="0" x2="0" y2="1"><stop offset="0%" stop-color="#1a1a2e"/><stop offset="100%" stop-color="#16213e"/></linearGradient>
    <linearGradient id="yellow" x1="0" y1="0" x2="1" y2="0"><stop offset="0%" stop-color="#f59e0b"/><stop offset="100%" stop-color="#d97706"/></linearGradient>
  </defs>
  <rect width="1200" height="750" fill="#fffbeb" rx="0"/>

  <!-- Left sidebar -->
  <rect width="190" height="750" fill="url(#navbg)"/>
  <text x="20" y="35" fill="white" font-family="system-ui,sans-serif" font-size="13" font-weight="800">≫ Distributor Hub</text>
  <rect x="12" y="60" width="166" height="30" rx="6" fill="#f59e0b" opacity="0.9"/>
  <text x="24" y="80" fill="white" font-family="system-ui,sans-serif" font-size="11" font-weight="700">🗃 Dashboard</text>
  <text x="20" y="110" fill="#94a3b8" font-family="system-ui,sans-serif" font-size="9">Inventory</text>
  <text x="20" y="130" fill="#94a3b8" font-family="system-ui,sans-serif" font-size="9">Distributors</text>
  <text x="20" y="150" fill="#94a3b8" font-family="system-ui,sans-serif" font-size="9">Orders</text>
  <text x="20" y="170" fill="#94a3b8" font-family="system-ui,sans-serif" font-size="9">Sales Analytics</text>
  <text x="20" y="190" fill="#94a3b8" font-family="system-ui,sans-serif" font-size="9">Reports</text>
  <text x="20" y="210" fill="#94a3b8" font-family="system-ui,sans-serif" font-size="9">Settings</text>

  <!-- Header -->
  <rect x="190" y="0" width="1010" height="50" fill="white" stroke="#e2e8f0" stroke-width="1"/>
  <rect x="210" y="12" width="280" height="26" rx="13" fill="#f1f5f9"/>
  <text x="230" y="29" fill="#94a3b8" font-family="system-ui,sans-serif" font-size="10">🔍 Search Inventory, Distributors, Orders</text>
  <text x="1080" y="30" fill="#1e293b" font-family="system-ui,sans-serif" font-size="9">Alex Carter | Global Dist. ▾</text>

  <!-- Inventory Overview card -->
  <rect x="210" y="65" width="370" height="290" rx="10" fill="white" stroke="#e2e8f0" stroke-width="1"/>
  <text x="225" y="88" fill="#1e293b" font-family="system-ui,sans-serif" font-size="11" font-weight="700">Inventory Overview</text>
  <!-- Stock indicators -->
  <rect x="225" y="98" width="95" height="48" rx="8" fill="#fee2e2"/>
  <text x="234" y="114" fill="#991b1b" font-family="system-ui,sans-serif" font-size="8" font-weight="600">Low Stock Items</text>
  <text x="234" y="135" fill="#dc2626" font-family="system-ui,sans-serif" font-size="18" font-weight="800">25</text>
  <rect x="328" y="98" width="95" height="48" rx="8" fill="#fef9c3"/>
  <text x="337" y="114" fill="#854d0e" font-family="system-ui,sans-serif" font-size="8" font-weight="600">Out of Stock</text>
  <text x="348" y="135" fill="#d97706" font-family="system-ui,sans-serif" font-size="18" font-weight="800">5</text>
  <rect x="431" y="98" width="130" height="48" rx="8" fill="#dcfce7"/>
  <text x="440" y="114" fill="#166534" font-family="system-ui,sans-serif" font-size="8" font-weight="600">Incoming Shipments</text>
  <text x="460" y="135" fill="#16a34a" font-family="system-ui,sans-serif" font-size="18" font-weight="800">12</text>
  <!-- Mini bar chart -->
  <text x="225" y="165" fill="#1e293b" font-family="system-ui,sans-serif" font-size="9" font-weight="600">Top 5 SKU Inventory Levels</text>
  <rect x="230" y="220" width="18" height="60" rx="2" fill="#fbbf24"/>
  <rect x="230" y="180" width="18" height="100" rx="2" fill="#60a5fa"/>
  <rect x="270" y="200" width="18" height="80" rx="2" fill="#fbbf24"/>
  <rect x="270" y="210" width="18" height="70" rx="2" fill="#60a5fa"/>
  <rect x="310" y="215" width="18" height="65" rx="2" fill="#fbbf24"/>
  <rect x="310" y="235" width="18" height="45" rx="2" fill="#60a5fa"/>
  <rect x="350" y="205" width="18" height="75" rx="2" fill="#fbbf24"/>
  <rect x="350" y="230" width="18" height="50" rx="2" fill="#60a5fa"/>
  <rect x="390" y="225" width="18" height="55" rx="2" fill="#fbbf24"/>
  <rect x="390" y="220" width="18" height="60" rx="2" fill="#60a5fa"/>
  <line x1="225" y1="285" x2="575" y2="285" stroke="#e2e8f0" stroke-width="1"/>
  <text x="230" y="298" fill="#94a3b8" font-family="system-ui,sans-serif" font-size="8">SKU 101</text>
  <text x="266" y="298" fill="#94a3b8" font-family="system-ui,sans-serif" font-size="8">SKU 102</text>
  <text x="306" y="298" fill="#94a3b8" font-family="system-ui,sans-serif" font-size="8">SKU 103</text>
  <text x="346" y="298" fill="#94a3b8" font-family="system-ui,sans-serif" font-size="8">SKU 104</text>
  <text x="386" y="298" fill="#94a3b8" font-family="system-ui,sans-serif" font-size="8">SKU 105</text>
  <text x="530" y="340" fill="#3b82f6" font-family="system-ui,sans-serif" font-size="9">View Detailed Report →</text>

  <!-- Distributor Network card -->
  <rect x="590" y="65" width="400" height="290" rx="10" fill="white" stroke="#e2e8f0" stroke-width="1"/>
  <text x="606" y="88" fill="#1e293b" font-family="system-ui,sans-serif" font-size="11" font-weight="700">Distributor Network Breakdown</text>
  <rect x="850" y="72" width="80" height="24" rx="12" fill="#f59e0b"/>
  <text x="862" y="88" fill="white" font-family="system-ui,sans-serif" font-size="9" font-weight="600">Active Active</text>
  <!-- Donut chart placeholder -->
  <circle cx="660" cy="185" r="55" fill="none" stroke="#e2e8f0" stroke-width="28"/>
  <circle cx="660" cy="185" r="55" fill="none" stroke="#fbbf24" stroke-width="28" stroke-dasharray="150 196"/>
  <circle cx="660" cy="185" r="55" fill="none" stroke="#60a5fa" stroke-width="28" stroke-dasharray="80 266" stroke-dashoffset="-150"/>
  <circle cx="660" cy="185" r="55" fill="none" stroke="#6ee7b7" stroke-width="28" stroke-dasharray="50 296" stroke-dashoffset="-230"/>
  <circle cx="660" cy="185" r="55" fill="none" stroke="#c4b5fd" stroke-width="28" stroke-dasharray="40 306" stroke-dashoffset="-280"/>
  <text x="660" y="180" fill="#1e293b" font-family="system-ui,sans-serif" font-size="18" font-weight="800" text-anchor="middle">150</text>
  <text x="660" y="195" fill="#64748b" font-family="system-ui,sans-serif" font-size="9" text-anchor="middle">Active</text>
  <!-- Legend -->
  <circle cx="744" cy="135" r="5" fill="#fbbf24"/><text x="754" y="139" fill="#64748b" font-family="system-ui,sans-serif" font-size="8">Tier 1 Distributors</text>
  <circle cx="744" cy="155" r="5" fill="#60a5fa"/><text x="754" y="159" fill="#64748b" font-family="system-ui,sans-serif" font-size="8">Tier 2 Distributors</text>
  <circle cx="744" cy="175" r="5" fill="#6ee7b7"/><text x="754" y="179" fill="#64748b" font-family="system-ui,sans-serif" font-size="8">Regional Partners</text>
  <circle cx="744" cy="195" r="5" fill="#c4b5fd"/><text x="754" y="199" fill="#64748b" font-family="system-ui,sans-serif" font-size="8">Direct Retailers</text>
  <!-- Recent Signups table -->
  <text x="606" y="240" fill="#1e293b" font-family="system-ui,sans-serif" font-size="9" font-weight="600">Recent Distributor Signups</text>
  <line x1="606" y1="248" x2="975" y2="248" stroke="#f1f5f9" stroke-width="1"/>
  <text x="606" y="262" fill="#94a3b8" font-family="system-ui,sans-serif" font-size="8" font-weight="600">Name</text>
  <text x="720" y="262" fill="#94a3b8" font-family="system-ui,sans-serif" font-size="8" font-weight="600">Location</text>
  <text x="830" y="262" fill="#94a3b8" font-family="system-ui,sans-serif" font-size="8" font-weight="600">Status</text>
  <text x="900" y="262" fill="#94a3b8" font-family="system-ui,sans-serif" font-size="8" font-weight="600">Sign-up Date</text>
  <text x="606" y="278" fill="#1e293b" font-family="system-ui,sans-serif" font-size="9">Jonat Woaders</text>
  <text x="720" y="278" fill="#64748b" font-family="system-ui,sans-serif" font-size="9">Eashington</text>
  <rect x="830" y="269" width="38" height="14" rx="7" fill="#dcfce7"/>
  <text x="835" y="280" fill="#16a34a" font-family="system-ui,sans-serif" font-size="8" font-weight="600">Active</text>
  <text x="900" y="278" fill="#64748b" font-family="system-ui,sans-serif" font-size="9">Apr 11, 2024</text>
  <text x="606" y="298" fill="#1e293b" font-family="system-ui,sans-serif" font-size="9">Alex Carter</text>
  <text x="720" y="298" fill="#64748b" font-family="system-ui,sans-serif" font-size="9">Markala</text>
  <rect x="830" y="289" width="38" height="14" rx="7" fill="#dcfce7"/>
  <text x="835" y="300" fill="#16a34a" font-family="system-ui,sans-serif" font-size="8" font-weight="600">Active</text>
  <text x="900" y="298" fill="#64748b" font-family="system-ui,sans-serif" font-size="9">Apr 11, 2024</text>

  <!-- Sales Performance chart -->
  <rect x="210" y="370" width="780" height="245" rx="10" fill="white" stroke="#e2e8f0" stroke-width="1"/>
  <text x="225" y="393" fill="#1e293b" font-family="system-ui,sans-serif" font-size="11" font-weight="700">Sales Performance – Last 30 Days</text>
  <rect x="850" y="380" width="65" height="20" rx="5" fill="#f1f5f9" stroke="#e2e8f0" stroke-width="1"/>
  <text x="855" y="394" fill="#1e293b" font-family="system-ui,sans-serif" font-size="8">This Month</text>
  <rect x="921" y="380" width="57" height="20" rx="5" fill="white" stroke="#e2e8f0" stroke-width="1"/>
  <text x="926" y="394" fill="#94a3b8" font-family="system-ui,sans-serif" font-size="8">Last Quarter</text>
  <!-- Y axis labels -->
  <text x="215" y="415" fill="#94a3b8" font-family="system-ui,sans-serif" font-size="8">$20M</text>
  <text x="215" y="445" fill="#94a3b8" font-family="system-ui,sans-serif" font-size="8">$1.2M</text>
  <text x="215" y="475" fill="#94a3b8" font-family="system-ui,sans-serif" font-size="8">$1.0M</text>
  <text x="215" y="505" fill="#94a3b8" font-family="system-ui,sans-serif" font-size="8">$0</text>
  <!-- Revenue line (yellow) -->
  <polyline points="250,580 310,540 360,510 420,470 480,450 540,420 600,400 650,430 700,415 750,440 790,410 840,390 880,370" fill="none" stroke="#f59e0b" stroke-width="2.5" stroke-linecap="round" stroke-linejoin="round"/>
  <!-- Area fill under yellow -->
  <path d="M250,580 310,540 360,510 420,470 480,450 540,420 600,400 650,430 700,415 750,440 790,410 840,390 880,370 880,590 250,590 Z" fill="#fef9c3" opacity="0.4"/>
  <!-- Profit line (gray) -->
  <polyline points="250,590 310,570 360,555 420,530 480,510 540,495 600,480 650,495 700,490 750,505 790,490 840,475 880,460" fill="none" stroke="#94a3b8" stroke-width="2" stroke-linecap="round" stroke-linejoin="round" stroke-dasharray="5,4"/>
  <!-- X axis labels -->
  <text x="248" y="604" fill="#94a3b8" font-family="system-ui,sans-serif" font-size="8">Dec 3</text>
  <text x="358" y="604" fill="#94a3b8" font-family="system-ui,sans-serif" font-size="8">Dec 10</text>
  <text x="468" y="604" fill="#94a3b8" font-family="system-ui,sans-serif" font-size="8">Dec 18</text>
  <text x="598" y="604" fill="#94a3b8" font-family="system-ui,sans-serif" font-size="8">Dec 24</text>
  <text x="878" y="604" fill="#94a3b8" font-family="system-ui,sans-serif" font-size="8">Dec 30</text>

  <!-- KPI sidebar -->
  <rect x="1000" y="65" width="185" height="290" rx="10" fill="white" stroke="#e2e8f0" stroke-width="1"/>
  <text x="1016" y="88" fill="#1e293b" font-family="system-ui,sans-serif" font-size="11" font-weight="700">Key Performance</text>
  <text x="1016" y="102" fill="#1e293b" font-family="system-ui,sans-serif" font-size="11" font-weight="700">Indicators (KPIs)</text>
  <text x="1016" y="135" fill="#1e293b" font-family="system-ui,sans-serif" font-size="20" font-weight="800">$1.2M</text>
  <rect x="1077" y="122" width="36" height="16" rx="8" fill="#dcfce7"/>
  <text x="1081" y="134" fill="#16a34a" font-family="system-ui,sans-serif" font-size="8" font-weight="700">↗ +5%</text>
  <text x="1016" y="152" fill="#64748b" font-family="system-ui,sans-serif" font-size="9">Total Revenue</text>
  <line x1="1016" y1="160" x2="1170" y2="160" stroke="#f1f5f9" stroke-width="1"/>
  <text x="1016" y="192" fill="#1e293b" font-family="system-ui,sans-serif" font-size="20" font-weight="800">$850</text>
  <rect x="1068" y="179" width="36" height="16" rx="8" fill="#dcfce7"/>
  <text x="1073" y="191" fill="#16a34a" font-family="system-ui,sans-serif" font-size="8" font-weight="700">↗ +3%</text>
  <text x="1016" y="208" fill="#64748b" font-family="system-ui,sans-serif" font-size="9">Average Order Value</text>
  <line x1="1016" y1="216" x2="1170" y2="216" stroke="#f1f5f9" stroke-width="1"/>
  <text x="1016" y="250" fill="#1e293b" font-family="system-ui,sans-serif" font-size="20" font-weight="800">94%</text>
  <rect x="1075" y="237" width="36" height="16" rx="8" fill="#fee2e2"/>
  <text x="1079" y="249" fill="#dc2626" font-family="system-ui,sans-serif" font-size="8" font-weight="700">↘ -1%</text>
  <text x="1016" y="268" fill="#64748b" font-family="system-ui,sans-serif" font-size="9">Perfect Order Rate</text>

  <!-- Recent Orders table -->
  <rect x="210" y="625" width="780" height="110" rx="10" fill="white" stroke="#e2e8f0" stroke-width="1"/>
  <text x="225" y="647" fill="#1e293b" font-family="system-ui,sans-serif" font-size="11" font-weight="700">Recent Orders Status</text>
  <rect x="225" y="655" width="50" height="18" rx="9" fill="#1e293b"/><text x="233" y="667" fill="white" font-family="system-ui,sans-serif" font-size="8">All Orders</text>
  <rect x="283" y="655" width="45" height="18" rx="9" fill="#f1f5f9"/><text x="291" y="667" fill="#64748b" font-family="system-ui,sans-serif" font-size="8">Pending</text>
  <rect x="336" y="655" width="45" height="18" rx="9" fill="#f1f5f9"/><text x="344" y="667" fill="#64748b" font-family="system-ui,sans-serif" font-size="8">Shipped</text>
  <rect x="389" y="655" width="52" height="18" rx="9" fill="#f1f5f9"/><text x="397" y="667" fill="#64748b" font-family="system-ui,sans-serif" font-size="8">Delivered</text>
  <!-- Table rows -->
  <text x="225" y="690" fill="#64748b" font-family="system-ui,sans-serif" font-size="8" font-weight="600">Order ID</text>
  <text x="310" y="690" fill="#64748b" font-family="system-ui,sans-serif" font-size="8" font-weight="600">Distributor</text>
  <text x="460" y="690" fill="#64748b" font-family="system-ui,sans-serif" font-size="8" font-weight="600">Amount</text>
  <text x="540" y="690" fill="#64748b" font-family="system-ui,sans-serif" font-size="8" font-weight="600">Status</text>
  <text x="225" y="708" fill="#1e293b" font-family="system-ui,sans-serif" font-size="9">3120301</text>
  <text x="310" y="708" fill="#1e293b" font-family="system-ui,sans-serif" font-size="9">Global Dist. Ix.</text>
  <text x="460" y="708" fill="#1e293b" font-family="system-ui,sans-serif" font-size="9">$12.2M</text>
  <rect x="540" y="698" width="44" height="14" rx="7" fill="#fef9c3"/>
  <text x="546" y="709" fill="#854d0e" font-family="system-ui,sans-serif" font-size="8" font-weight="600">Pending</text>
  <text x="225" y="725" fill="#1e293b" font-family="system-ui,sans-serif" font-size="9">3120302</text>
  <text x="310" y="725" fill="#1e293b" font-family="system-ui,sans-serif" font-size="9">Distributor 2</text>
  <text x="460" y="725" fill="#1e293b" font-family="system-ui,sans-serif" font-size="9">$50.00</text>
  <rect x="540" y="715" width="44" height="14" rx="7" fill="#dbeafe"/>
  <text x="547" y="726" fill="#1d4ed8" font-family="system-ui,sans-serif" font-size="8" font-weight="600">Shipped</text>
</svg>
